# xmcd
#
# Track frame offsets: 
#        150
#        48668
#        76309
#
# Disc length: 1766 seconds
#
# Revision: 7
# Processed by: cddbd v1.5.2PL0 Copyright (c) Steve Scherf et al.
# Submitted via: ExactAudioCopy v1.3
#
DISCID=1d06e403
DTITLE=Joe Satriani, Steve Vai and Yngwie J. Malmsteen - Rockin' in the 
DTITLE=free world
DYEAR=2004
DGENRE=Instrumental Rock
TTITLE0=Voodoo child
TTITLE1=Little wing
TTITLE2=Rockin' In the free world
EXTD=YEAR: 2004
EXTT0=
EXTT1=
EXTT2=
PLAYORDER=
